P3
3 3
255
149 164 168 120 105 138 163 174 196 
171 231 153 220 75 222 189 73 214 
211 120 173 79 125 246 211 201 98 
