P3
2 2
255
220 75 222 189 73 214 
171 231 153 211 201 98 
