P3
20 20
255
83 99 123 100 118 140 136 138 148 126 141 159 128 143 160 131 144 160 135 145 161 136 145 161 141 149 160 131 137 153 133 132 148 131 131 146 124 130 146 116 131 148 115 129 146 114 124 141 135 129 134 114 108 125 108 114 133 104 119 137 
113 113 125 123 103 114 154 131 136 166 148 151 167 160 161 153 158 166 155 159 166 155 159 165 168 163 164 162 151 152 157 144 146 152 144 146 153 146 148 135 143 151 133 139 148 137 129 129 116 109 113 112 108 114 107 108 118 110 123 138 
121 117 121 130 125 126 164 125 125 162 120 122 174 138 136 178 144 141 184 163 157 183 170 162 189 153 146 173 143 138 173 154 147 173 154 142 168 151 139 161 147 137 157 145 136 151 140 131 125 115 113 116 107 108 125 114 112 120 118 120 
72 65 80 91 81 91 107 98 101 159 84 87 183 105 101 194 141 129 202 165 147 200 173 154 227 165 132 204 168 147 177 141 124 149 113 107 125 97 97 122 97 97 134 110 105 155 131 117 151 130 117 147 129 116 141 122 111 137 121 110 
103 63 71 105 56 70 134 73 78 175 94 88 202 85 73 213 94 77 207 109 94 233 155 116 228 147 112 223 153 117 205 145 115 173 125 105 173 130 108 169 130 109 162 127 107 155 120 102 146 115 100 136 112 99 143 120 102 136 114 98 
143 81 68 140 81 70 160 100 81 188 103 78 211 109 77 214 104 79 227 118 83 231 124 80 218 119 84 208 130 95 175 119 95 173 112 89 159 100 84 151 100 83 138 91 79 128 84 77 111 76 76 112 82 79 127 95 82 128 98 83 
104 60 63 133 73 65 142 76 66 146 77 65 157 80 65 189 105 73 195 108 73 188 107 76 183 104 75 180 100 74 163 95 74 146 90 74 155 124 115 172 159 152 135 99 88 122 77 70 112 73 70 104 71 69 99 70 69 97 69 68 
101 82 82 102 89 91 105 91 94 109 91 93 129 95 94 130 91 89 140 95 89 177 151 142 135 96 91 141 96 89 145 98 88 139 100 91 119 105 100 109 101 96 130 112 103 126 100 90 122 99 90 120 100 90 116 99 90 114 96 86 
98 107 116 96 106 116 94 105 116 89 100 111 83 94 106 97 104 117 92 101 113 85 93 104 81 93 103 91 101 110 102 109 114 128 125 124 168 145 138 138 127 119 132 130 124 133 134 129 133 134 127 130 132 124 128 130 123 131 133 124 
150 147 149 148 147 148 158 155 155 161 157 157 156 149 148 152 146 147 160 151 149 151 143 140 142 140 140 147 142 140 153 146 142 140 142 142 164 146 138 143 136 126 164 160 150 156 154 143 151 149 139 148 146 136 133 133 132 154 152 140 
138 141 152 171 167 172 171 167 172 142 141 154 140 136 150 164 163 175 164 159 166 142 139 147 154 150 161 155 155 169 159 158 169 175 158 152 127 118 113 145 147 153 141 142 148 153 152 150 135 137 142 156 153 149 147 144 138 146 143 136 
156 152 158 171 165 170 175 169 177 185 178 183 175 165 170 170 158 163 163 155 166 155 147 158 164 154 159 162 152 160 163 156 158 152 145 143 190 181 174 173 169 166 158 153 144 129 124 118 143 138 135 169 163 159 163 158 156 167 161 157 
167 160 164 177 162 161 193 178 176 202 185 179 185 165 162 187 160 148 191 164 148 187 160 145 184 156 142 189 163 146 196 172 158 188 173 156 77 82 83 160 159 161 209 207 203 180 175 172 70 62 58 115 103 89 142 129 109 173 158 134 
139 125 118 170 152 145 185 164 157 186 165 158 183 160 153 176 154 144 177 152 137 183 157 141 181 158 143 184 161 146 190 175 160 193 177 159 110 111 105 50 64 68 110 112 117 148 148 149 159 156 152 78 68 63 87 76 67 132 120 98 
121 108 101 142 130 125 160 143 136 173 153 144 177 157 149 174 153 145 172 151 142 164 145 133 166 146 133 171 153 141 169 156 143 151 140 124 158 150 139 80 90 87 101 107 109 47 51 51 57 58 57 32 28 26 63 54 49 81 74 61 
123 113 107 128 116 108 137 122 114 158 143 135 165 147 136 173 151 138 175 151 133 161 141 128 153 135 122 146 129 110 167 151 130 128 115 100 109 94 78 130 124 106 103 107 97 99 107 103 71 81 78 50 54 53 23 20 17 126 113 95 
107 87 69 117 98 81 127 110 96 138 123 112 156 138 124 167 146 129 165 140 117 139 119 96 117 101 81 130 110 87 141 123 101 162 145 123 182 168 150 109 98 81 111 105 91 143 135 119 99 94 80 117 113 97 68 64 52 58 51 41 
110 89 69 120 104 87 128 112 97 140 123 107 154 136 116 162 143 124 157 136 112 139 124 102 92 78 63 116 95 74 120 101 79 130 120 107 152 145 135 145 138 130 154 148 141 149 146 140 143 141 132 170 164 144 113 105 88 92 86 70 
106 87 72 115 98 81 126 108 90 134 116 99 144 126 107 154 135 111 143 133 114 158 145 124 167 156 133 133 122 101 110 106 86 56 60 55 49 51 50 66 65 61 100 98 93 112 109 106 120 121 114 126 118 96 112 100 77 121 111 93 
99 80 67 108 89 74 113 96 81 123 106 89 129 113 96 100 94 81 169 165 144 168 168 148 165 163 145 159 148 125 103 100 83 60 66 64 78 76 74 91 85 80 119 113 108 134 131 127 140 141 134 102 93 72 108 95 72 117 106 83 
